<svg width="23" height="24" viewBox="0 0 23 24" fill="none" xmlns="http://www.w3.org/2000/svg">
<path fill-rule="evenodd" clip-rule="evenodd" d="M5 21C5 19.6193 6.11929 18.5 7.5 18.5C8.88071 18.5 10 19.6193 10 21C10 22.3807 8.88071 23.5 7.5 23.5C6.11929 23.5 5 22.3807 5 21ZM7.5 19.5C6.67157 19.5 6 20.1716 6 21C6 21.8284 6.67157 22.5 7.5 22.5C8.32843 22.5 9 21.8284 9 21C9 20.1716 8.32843 19.5 7.5 19.5Z" fill="#414141"/>
<path fill-rule="evenodd" clip-rule="evenodd" d="M17 21C17 19.6193 18.1193 18.5 19.5 18.5C20.8807 18.5 22 19.6193 22 21C22 22.3807 20.8807 23.5 19.5 23.5C18.1193 23.5 17 22.3807 17 21ZM19.5 19.5C18.6716 19.5 18 20.1716 18 21C18 21.8284 18.6716 22.5 19.5 22.5C20.3284 22.5 21 21.8284 21 21C21 20.1716 20.3284 19.5 19.5 19.5Z" fill="#414141"/>
<path fill-rule="evenodd" clip-rule="evenodd" d="M0.5 0.5C0.223858 0.5 0 0.723858 0 1C0 1.27614 0.223858 1.5 0.5 1.5H4.08051C4.83783 5.79147 5.60333 10.0643 6.24931 14.3709C6.43288 15.5947 7.48416 16.5 8.72165 16.5H18.8597C20.0514 16.5 21.0774 15.6588 21.3111 14.4903L22.7503 7.29417C22.936 6.36599 22.226 5.5 21.2795 5.5H6.66046C6.3575 5.5 6.07797 5.58901 5.84436 5.74093L4.99239 0.913107C4.95023 0.674179 4.74262 0.5 4.5 0.5H0.5ZM6.166 7.07417C6.12065 6.77187 6.35478 6.5 6.66046 6.5H21.2795C21.595 6.5 21.8316 6.78866 21.7698 7.09806L20.3305 14.2942C20.1903 14.9953 19.5747 15.5 18.8597 15.5H8.72165C7.97916 15.5 7.34839 14.9568 7.23825 14.2225L6.166 7.07417Z" fill="#414141"/>
</svg>
